<?xml version="1.0" encoding="UTF-8"?>
<svg id="_Шар_1" data-name="Шар 1" xmlns="http://www.w3.org/2000/svg" viewBox="0 0 1095.17 259.53">
  <defs>
    <style>
      .cls-1 {
        fill: #ece9e5;
      }
    </style>
  </defs>
  <path class="cls-1" d="m72.37,64.55c-2.93,0-5.31-2.38-5.31-5.31v-14.52c0-.46-.1-.62-.15-.68-.25-.37-.4-.46-.4-.46-.32-.16-.62-.36-.9-.58-.12-.1-.84-.6-2.93-1.03-1.76-.43-3.21-.67-4.53-.77-1.42-.1-2.45-.16-3.07-.16h-2.59c-.69,0-1.46.15-2.3.43-.95.32-2,.56-3.08.72-.35.32-.76.65-1.22,1.02-.02,28.66.04,56.79.16,84.64.11,28.01.18,56.31.18,84.9,0,1.6.5,2.1.68,2.28,1.23,1.23,1.98,1.57,2.25,1.66.15.05.29.1.43.16,1.18.51,2.35.85,3.48,1.01,1.36.19,2.51.29,3.41.29,3.64,0,6.29-.66,7.67-1.9,1.57-1.42,2.56-3.24,3.03-5.58.03-.14.06-.28.1-.42.33-1.13.49-2.27.49-3.38v-4.37c-.23-1.44-.34-3.26-.34-5.66,0-2.94,2.38-5.31,5.31-5.31h35.26c1.59,0,3.1.71,4.1,1.94,1.01,1.23,1.41,2.85,1.1,4.41-.16.8-.24,1.67-.24,2.58v3.97c0,16.91-5.34,30.43-15.87,40.19-10.42,9.66-24.08,14.56-40.6,14.56s-29.82-4.69-40.33-13.94C5.43,235.83,0,222.57,0,205.83c0-26.28.05-52.33.17-78.16.11-25.8.18-51.84.18-78.11,0-8.16,1.52-15.4,4.51-21.52,2.98-6.09,7.19-11.35,12.51-15.63,5.22-4.2,11.29-7.37,18.04-9.42,6.58-1.99,13.67-2.99,21.07-2.99s14.92,1.07,21.64,3.19c6.85,2.16,12.98,5.45,18.22,9.79h0c5.32,4.42,9.52,9.93,12.49,16.39,2.96,6.45,4.46,13.94,4.46,22.27v7.61c0,2.93-2.38,5.31-5.31,5.31h-35.62Z"/>
  <path class="cls-1" d="m367.87,130.31c0,71.25-57.97,129.22-129.21,129.22s-129.22-57.97-129.22-129.22S167.4,1.1,238.65,1.1s129.21,57.97,129.21,129.21Zm-42.48,0c0-47.82-38.91-86.73-86.73-86.73s-86.73,38.91-86.73,86.73,38.91,86.73,86.73,86.73,86.73-38.91,86.73-86.73Z"/>
  <path class="cls-1" d="m526.1,3.46c2.94,0,5.31,2.38,5.31,5.31v241.65c0,2.94-2.37,5.31-5.31,5.31h-35.61c-2.93,0-5.31-2.38-5.31-5.31v-62.27l-19.69,63.84c-.68,2.22-2.73,3.74-5.05,3.75h-.03c-2.31,0-4.35-1.49-5.06-3.7l-20.75-65v63.38c0,2.94-2.37,5.31-5.31,5.31h-35.26c-2.93,0-5.31-2.38-5.31-5.31V8.77c0-2.93,2.38-5.31,5.31-5.31h36.99c2.53,0,4.71,1.79,5.21,4.27l24.08,120.99,23.23-120.95c.48-2.5,2.67-4.31,5.21-4.31h37.34Z"/>
  <path class="cls-1" d="m668.43,46.27c.23,3.69.35,7.59.35,11.42v53.41c0,8.32-1.49,15.86-4.44,22.41-2.96,6.56-7.08,12.17-12.24,16.68-5.14,4.49-11.28,7.92-18.27,10.21-6.85,2.24-14.32,3.37-22.22,3.37h-13.36v86.65c0,2.94-2.37,5.31-5.31,5.31h-35.26c-2.93,0-5.31-2.38-5.31-5.31V8.76c0-2.93,2.38-5.31,5.31-5.31h53.93c6.82,0,13.55.74,20.01,2.21,6.66,1.51,12.69,3.95,17.92,7.26,5.37,3.41,9.82,7.86,13.22,13.23,0,0,0,0,0,0,3.49,5.52,5.4,12.29,5.66,20.12h0Zm-45.89,64.83v-63.26c0-.68-.07-.72-.38-.89-.12-.07-.24-.15-.35-.22-.87-.58-1.95-1.03-3.2-1.35-1.41-.4-2.64-.63-3.79-.72-1.31-.1-2.39-.16-3.21-.16h-13.36v77.88h13.36c3.4,0,6.02-.96,8-2.94,1.98-1.98,2.94-4.71,2.94-8.34h0Z"/>
  <path class="cls-1" d="m814.63,249.76c.19,1.52-.28,3.03-1.29,4.18-1.01,1.14-2.46,1.8-3.99,1.8h-35.61c-2.73,0-5.02-2.07-5.29-4.79l-4.37-44.99h-45.44l-13.23,45.94c-.65,2.28-2.73,3.84-5.1,3.84h-34.92c-1.68,0-3.25-.79-4.26-2.14-1.01-1.34-1.31-3.09-.83-4.69L732.53,7.25c.67-2.25,2.74-3.79,5.09-3.79h41.32c2.68,0,4.93,1.99,5.27,4.64l30.42,241.66h0Zm-54.69-84.86l-7.45-76.45-22.02,76.45h29.47Z"/>
  <path class="cls-1" d="m987.46,8.77v30.42c0,2.93-2.38,5.31-5.31,5.31-38,0-45.31,41.08-53.78,88.63-10.25,57.58-21.88,122.86-95.18,122.86-2.93,0-5.31-2.38-5.31-5.31v-31.86c0-2.93,2.38-5.31,5.31-5.31,37.46,0,44.27-40.17,52.14-86.69,9.79-57.82,20.89-123.35,96.82-123.35,2.94,0,5.31,2.38,5.31,5.31Z"/>
  <path class="cls-1" d="m1095.17,8.77v30.42c0,2.93-2.38,5.31-5.31,5.31-38,0-45.31,41.08-53.78,88.63-10.25,57.58-21.88,122.86-95.18,122.86-2.93,0-5.31-2.38-5.31-5.31v-31.86c0-2.93,2.38-5.31,5.31-5.31,37.46,0,44.27-40.17,52.14-86.69,9.79-57.82,20.89-123.35,96.82-123.35,2.94,0,5.31,2.38,5.31,5.31Z"/>
  <path class="cls-1" d="m222.63,121.64c11.03,5.43,22.07,10.87,33.1,16.3-16.16,18.29-32.32,36.59-48.48,54.88"/>
  <path class="cls-1" d="m255.68,137.92c-11.03-5.43-22.07-10.87-33.1-16.3,16.16-18.29,32.32-36.59,48.48-54.88"/>
</svg>